<svg width="32" height="32" viewBox="0 0 32 32" fill="none" xmlns="http://www.w3.org/2000/svg">
<g id="Group">
<path id="Vector" fill-rule="evenodd" clip-rule="evenodd" d="M11.0575 15.0575C10.8076 15.3076 10.6671 15.6466 10.6671 16.0002C10.6671 16.3537 10.8076 16.6928 11.0575 16.9429L18.6002 24.4855C18.7232 24.6129 18.8703 24.7145 19.033 24.7843C19.1957 24.8542 19.3706 24.891 19.5477 24.8925C19.7247 24.8941 19.9003 24.8603 20.0641 24.7933C20.228 24.7262 20.3769 24.6272 20.5021 24.5021C20.6272 24.3769 20.7262 24.228 20.7933 24.0641C20.8603 23.9003 20.8941 23.7247 20.8925 23.5477C20.891 23.3706 20.8542 23.1957 20.7843 23.033C20.7145 22.8703 20.6129 22.7232 20.4855 22.6002L13.8855 16.0002L20.4855 9.40019C20.7284 9.14872 20.8628 8.81192 20.8598 8.46233C20.8567 8.11273 20.7165 7.77831 20.4693 7.5311C20.2221 7.28389 19.8877 7.14367 19.5381 7.14063C19.1885 7.13759 18.8517 7.27198 18.6002 7.51486L11.0575 15.0575Z" fill="black"/>
</g>
</svg>
