<svg width="32" height="32" viewBox="0 0 32 32" fill="none" xmlns="http://www.w3.org/2000/svg">
<g id="Group">
<path id="Vector" fill-rule="evenodd" clip-rule="evenodd" d="M20.9425 15.0575C21.1924 15.3076 21.3329 15.6466 21.3329 16.0002C21.3329 16.3537 21.1924 16.6928 20.9425 16.9429L13.3998 24.4855C13.2768 24.6129 13.1297 24.7145 12.967 24.7843C12.8043 24.8542 12.6294 24.891 12.4523 24.8925C12.2753 24.8941 12.0997 24.8603 11.9359 24.7933C11.772 24.7262 11.6231 24.6272 11.4979 24.5021C11.3728 24.3769 11.2738 24.228 11.2067 24.0641C11.1397 23.9003 11.1059 23.7247 11.1075 23.5477C11.109 23.3706 11.1458 23.1957 11.2157 23.033C11.2855 22.8703 11.3871 22.7232 11.5145 22.6002L18.1145 16.0002L11.5145 9.40019C11.2716 9.14872 11.1372 8.81192 11.1402 8.46233C11.1433 8.11273 11.2835 7.77831 11.5307 7.5311C11.7779 7.28389 12.1123 7.14367 12.4619 7.14063C12.8115 7.13759 13.1483 7.27198 13.3998 7.51486L20.9425 15.0575Z" fill="black"/>
</g>
</svg>
